HIERARCHY
ROOT mixamorig:Hips
{
	OFFSET 0.000000 201.639420 0.000000
	CHANNELS 6 Xposition Yposition Zposition Xrotation Yrotation Zrotation
	JOINT mixamorig:Spine
	{
		OFFSET 0.006200 19.524994 -2.481800
		CHANNELS 3 Xrotation Yrotation Zrotation
		JOINT mixamorig:Spine1
		{
			OFFSET -0.000900 22.835007 -2.825400
			CHANNELS 3 Xrotation Yrotation Zrotation
			JOINT mixamorig:Spine2
			{
				OFFSET -0.020600 26.552490 -3.193300
				CHANNELS 3 Xrotation Yrotation Zrotation
				JOINT mixamorig:Neck
				{
					OFFSET -0.060000 30.701813 1.352200
					CHANNELS 3 Xrotation Yrotation Zrotation
					JOINT mixamorig:Head
					{
						OFFSET -0.087200 22.547607 3.670900
						CHANNELS 3 Xrotation Yrotation Zrotation
						JOINT mixamorig:HeadTop_End
						{
							OFFSET -0.830600 40.355194 7.893500
							CHANNELS 3 Xrotation Yrotation Zrotation
							End Site
							{
								OFFSET 0.000000 30.592346 0.000000
							}
						}
						JOINT mixamorig:RightEye
						{
							OFFSET -6.302100 18.118591 16.197100
							CHANNELS 3 Xrotation Yrotation Zrotation
							End Site
							{
								OFFSET 0.000000 30.592346 0.000000
							}
						}
						JOINT mixamorig:LeftEye
						{
							OFFSET 6.741500 18.382690 16.401899
							CHANNELS 3 Xrotation Yrotation Zrotation
							End Site
							{
								OFFSET 0.000000 30.592346 0.000000
							}
						}
					}
				}
				JOINT mixamorig:LeftShoulder
				{
					OFFSET 11.924900 18.230499 1.425400
					CHANNELS 3 Xrotation Yrotation Zrotation
					JOINT mixamorig:LeftArm
					{
						OFFSET 25.435989 -0.697632 -5.229300
						CHANNELS 3 Xrotation Yrotation Zrotation
						JOINT mixamorig:LeftForeArm
						{
							OFFSET 54.684776 0.000000 0.000000
							CHANNELS 3 Xrotation Yrotation Zrotation
							JOINT mixamorig:LeftHand
							{
								OFFSET 55.098175 0.000000 0.000000
								CHANNELS 3 Xrotation Yrotation Zrotation
								JOINT mixamorig:LeftHandMiddle1
								{
									OFFSET 23.369751 0.000000 0.000000
									CHANNELS 3 Xrotation Yrotation Zrotation
									JOINT mixamorig:LeftHandMiddle2
									{
										OFFSET 6.378677 0.000000 0.000000
										CHANNELS 3 Xrotation Yrotation Zrotation
										JOINT mixamorig:LeftHandMiddle3
										{
											OFFSET 6.148331 0.000000 0.000000
											CHANNELS 3 Xrotation Yrotation Zrotation
											JOINT mixamorig:LeftHandMiddle4
											{
												OFFSET 6.582504 0.000000 0.000000
												CHANNELS 3 Xrotation Yrotation Zrotation
												End Site
												{
													OFFSET -1.168900 6.395691 1.028606
												}
											}
										}
									}
								}
								JOINT mixamorig:LeftHandThumb1
								{
									OFFSET 7.235672 -3.848206 5.434273
									CHANNELS 3 Xrotation Yrotation Zrotation
									JOINT mixamorig:LeftHandThumb2
									{
										OFFSET 6.568451 -3.792297 3.792300
										CHANNELS 3 Xrotation Yrotation Zrotation
										JOINT mixamorig:LeftHandThumb3
										{
											OFFSET 6.063080 -3.500519 3.500518
											CHANNELS 3 Xrotation Yrotation Zrotation
											JOINT mixamorig:LeftHandThumb4
											{
												OFFSET 4.793182 -2.767334 2.767349
												CHANNELS 3 Xrotation Yrotation Zrotation
												End Site
												{
													OFFSET 0.101639 6.054260 1.275483
												}
											}
										}
									}
								}
								JOINT mixamorig:LeftHandIndex1
								{
									OFFSET 23.101074 -0.309540 4.992809
									CHANNELS 3 Xrotation Yrotation Zrotation
									JOINT mixamorig:LeftHandIndex2
									{
										OFFSET 6.226883 0.000000 0.000000
										CHANNELS 3 Xrotation Yrotation Zrotation
										JOINT mixamorig:LeftHandIndex3
										{
											OFFSET 6.094330 0.000000 0.000000
											CHANNELS 3 Xrotation Yrotation Zrotation
											JOINT mixamorig:LeftHandIndex4
											{
												OFFSET 5.482605 0.000000 0.000000
												CHANNELS 3 Xrotation Yrotation Zrotation
												End Site
												{
													OFFSET -1.427902 5.233032 0.797164
												}
											}
										}
									}
								}
								JOINT mixamorig:LeftHandRing1
								{
									OFFSET 22.299240 0.021149 -3.964172
									CHANNELS 3 Xrotation Yrotation Zrotation
									JOINT mixamorig:LeftHandRing2
									{
										OFFSET 6.321869 0.000000 0.000000
										CHANNELS 3 Xrotation Yrotation Zrotation
										JOINT mixamorig:LeftHandRing3
										{
											OFFSET 5.899796 0.000000 0.000000
											CHANNELS 3 Xrotation Yrotation Zrotation
											JOINT mixamorig:LeftHandRing4
											{
												OFFSET 6.517899 0.000000 0.000000
												CHANNELS 3 Xrotation Yrotation Zrotation
												End Site
												{
													OFFSET -1.637299 6.232208 0.980890
												}
											}
										}
									}
								}
								JOINT mixamorig:LeftHandPinky1
								{
									OFFSET 20.463791 -0.302338 -8.562233
									CHANNELS 3 Xrotation Yrotation Zrotation
									JOINT mixamorig:LeftHandPinky2
									{
										OFFSET 6.908646 0.000000 0.000000
										CHANNELS 3 Xrotation Yrotation Zrotation
										JOINT mixamorig:LeftHandPinky3
										{
											OFFSET 4.622849 0.000000 0.000000
											CHANNELS 3 Xrotation Yrotation Zrotation
											JOINT mixamorig:LeftHandPinky4
											{
												OFFSET 5.216080 0.000000 0.000000
												CHANNELS 3 Xrotation Yrotation Zrotation
												End Site
												{
													OFFSET -0.606308 5.116241 0.814926
												}
											}
										}
									}
								}
							}
						}
					}
				}
				JOINT mixamorig:RightShoulder
				{
					OFFSET -12.001300 18.284088 1.348900
					CHANNELS 3 Xrotation Yrotation Zrotation
					JOINT mixamorig:RightArm
					{
						OFFSET -25.308500 -0.751312 -5.164599
						CHANNELS 3 Xrotation Yrotation Zrotation
						JOINT mixamorig:RightForeArm
						{
							OFFSET -54.684429 0.000000 0.000000
							CHANNELS 3 Xrotation Yrotation Zrotation
							JOINT mixamorig:RightHand
							{
								OFFSET -55.150291 0.000000 0.000000
								CHANNELS 3 Xrotation Yrotation Zrotation
								JOINT mixamorig:RightHandMiddle1
								{
									OFFSET -23.317566 0.000000 0.000000
									CHANNELS 3 Xrotation Yrotation Zrotation
									JOINT mixamorig:RightHandMiddle2
									{
										OFFSET -6.378403 0.000000 0.000000
										CHANNELS 3 Xrotation Yrotation Zrotation
										JOINT mixamorig:RightHandMiddle3
										{
											OFFSET -6.148193 0.000000 0.000000
											CHANNELS 3 Xrotation Yrotation Zrotation
											JOINT mixamorig:RightHandMiddle4
											{
												OFFSET -6.583389 0.000000 0.000000
												CHANNELS 3 Xrotation Yrotation Zrotation
												End Site
												{
													OFFSET 1.171692 6.395905 1.029786
												}
											}
										}
									}
								}
								JOINT mixamorig:RightHandThumb1
								{
									OFFSET -7.190521 -3.860474 5.435846
									CHANNELS 3 Xrotation Yrotation Zrotation
									JOINT mixamorig:RightHandThumb2
									{
										OFFSET -6.567429 -3.791718 3.791708
										CHANNELS 3 Xrotation Yrotation Zrotation
										JOINT mixamorig:RightHandThumb3
										{
											OFFSET -6.062469 -3.500153 3.500166
											CHANNELS 3 Xrotation Yrotation Zrotation
											JOINT mixamorig:RightHandThumb4
											{
												OFFSET -4.792618 -2.767029 2.767022
												CHANNELS 3 Xrotation Yrotation Zrotation
												End Site
												{
													OFFSET -0.100327 6.053253 1.276754
												}
											}
										}
									}
								}
								JOINT mixamorig:RightHandIndex1
								{
									OFFSET -23.048981 -0.310791 4.992554
									CHANNELS 3 Xrotation Yrotation Zrotation
									JOINT mixamorig:RightHandIndex2
									{
										OFFSET -6.227539 0.000000 0.000000
										CHANNELS 3 Xrotation Yrotation Zrotation
										JOINT mixamorig:RightHandIndex3
										{
											OFFSET -6.095047 0.000000 0.000000
											CHANNELS 3 Xrotation Yrotation Zrotation
											JOINT mixamorig:RightHandIndex4
											{
												OFFSET -5.484772 0.000000 0.000000
												CHANNELS 3 Xrotation Yrotation Zrotation
												End Site
												{
													OFFSET 1.420593 5.237305 0.797056
												}
											}
										}
									}
								}
								JOINT mixamorig:RightHandRing1
								{
									OFFSET -22.246323 0.020569 -3.963762
									CHANNELS 3 Xrotation Yrotation Zrotation
									JOINT mixamorig:RightHandRing2
									{
										OFFSET -6.322128 0.000000 0.000000
										CHANNELS 3 Xrotation Yrotation Zrotation
										JOINT mixamorig:RightHandRing3
										{
											OFFSET -5.900024 0.000000 0.000000
											CHANNELS 3 Xrotation Yrotation Zrotation
											JOINT mixamorig:RightHandRing4
											{
												OFFSET -6.518356 0.000000 0.000000
												CHANNELS 3 Xrotation Yrotation Zrotation
												End Site
												{
													OFFSET 1.636398 6.232697 0.982186
												}
											}
										}
									}
								}
								JOINT mixamorig:RightHandPinky1
								{
									OFFSET -20.411011 -0.303314 -8.561701
									CHANNELS 3 Xrotation Yrotation Zrotation
									JOINT mixamorig:RightHandPinky2
									{
										OFFSET -6.907349 0.000000 0.000000
										CHANNELS 3 Xrotation Yrotation Zrotation
										JOINT mixamorig:RightHandPinky3
										{
											OFFSET -4.623840 0.000000 0.000000
											CHANNELS 3 Xrotation Yrotation Zrotation
											JOINT mixamorig:RightHandPinky4
											{
												OFFSET -5.218353 0.000000 0.000000
												CHANNELS 3 Xrotation Yrotation Zrotation
												End Site
												{
													OFFSET 0.602097 5.118835 0.816273
												}
											}
										}
									}
								}
							}
						}
					}
				}
			}
		}
	}
	JOINT mixamorig:LeftUpLeg
	{
		OFFSET 18.168400 -13.561905 -0.039000
		CHANNELS 3 Xrotation Yrotation Zrotation
		JOINT mixamorig:LeftLeg
		{
			OFFSET 0.577358 -80.825211 -3.695000
			CHANNELS 3 Xrotation Yrotation Zrotation
			JOINT mixamorig:LeftFoot
			{
				OFFSET -0.577356 -83.370262 -6.520700
				CHANNELS 3 Xrotation Yrotation Zrotation
				JOINT mixamorig:LeftToeBase
				{
					OFFSET 0.750401 -20.798306 25.135401
					CHANNELS 3 Xrotation Yrotation Zrotation
					JOINT mixamorig:LeftToe_End
					{
						OFFSET -0.000500 0.001200 19.917799
						CHANNELS 3 Xrotation Yrotation Zrotation
						End Site
						{
							OFFSET 0.000000 19.917805 0.000000
						}
					}
				}
			}
		}
	}
	JOINT mixamorig:RightUpLeg
	{
		OFFSET -18.162500 -13.585098 -0.041000
		CHANNELS 3 Xrotation Yrotation Zrotation
		JOINT mixamorig:RightLeg
		{
			OFFSET -0.595024 -80.945297 -3.631900
			CHANNELS 3 Xrotation Yrotation Zrotation
			JOINT mixamorig:RightFoot
			{
				OFFSET 0.595024 -83.218193 -6.561200
				CHANNELS 3 Xrotation Yrotation Zrotation
				JOINT mixamorig:RightToeBase
				{
					OFFSET -0.753601 -20.807106 25.115000
					CHANNELS 3 Xrotation Yrotation Zrotation
					JOINT mixamorig:RightToe_End
					{
						OFFSET 0.000299 0.001700 19.918200
						CHANNELS 3 Xrotation Yrotation Zrotation
						End Site
						{
							OFFSET 0.000000 19.918203 0.000000
						}
					}
				}
			}
		}
	}
}
MOTION
Frames: 4
Frame Time: 0.033333
-4.454142 189.139481 -2.511379 -15.523941 -3.262975 1.694337 4.284387 0.916997 -0.288354 8.532528 2.198892 0.964197 8.532532 2.198892 0.964199 -1.524288 -3.463478 1.779961 -34.187614 -10.717765 -12.030429 0.000002 0.000000 -0.000000 0.000002 0.000000 -0.000000 0.000002 0.000000 -0.000000 0.294485 -0.132774 8.441333 -74.729038 -43.343387 -62.855041 7.316472 -61.474585 2.597644 14.009918 12.974180 -4.955920 -2.875211 -0.675414 -45.453102 -2.952896 -4.344942 -68.200989 -0.000010 0.000001 -0.000000 -0.000001 -0.000000 -0.000000 33.089514 -16.761742 -8.856929 -0.754064 21.632179 7.406653 0.000002 -0.000013 0.000001 0.000002 -0.000002 0.000001 -4.944074 5.361206 -36.257308 0.593492 0.850685 -62.789533 -0.000002 0.000000 0.000001 -0.000001 -0.000001 0.000000 -2.675073 -0.597067 -48.302678 -3.583730 -4.697151 -74.796275 0.000005 -0.000002 0.000010 0.000001 -0.000001 -0.000001 2.309501 8.920343 -33.222983 -2.173486 -4.946514 -47.541986 0.000004 0.000000 -0.000001 0.000000 0.000001 0.000003 -0.977214 17.782507 13.969199 -39.723298 20.656220 52.670881 -53.117695 87.460285 51.745103 71.559503 -10.177040 29.474541 -1.493990 -2.594369 22.473383 -2.712157 3.443498 76.234528 -0.000002 -0.000001 -0.000001 0.000000 0.000001 -0.000000 39.817438 13.648609 -17.067856 -4.138480 -8.434549 16.162266 0.000005 -0.000001 -0.000005 0.000002 -0.000000 0.000001 -7.456938 -2.171599 13.709056 1.348873 -1.979175 65.394622 0.000006 0.000015 0.000004 0.000001 0.000002 0.000004 0.181408 0.915644 19.047183 -4.091629 5.757820 68.897689 0.000000 0.000013 -0.000002 -0.000001 0.000000 -0.000001 -2.820650 8.646689 14.005383 -6.841680 9.362841 72.160491 0.000002 -0.000017 0.000015 -0.000002 0.000002 -0.000001 -41.392435 33.231681 10.039048 47.911571 -0.391581 -1.727825 -6.904353 -12.092749 -0.762708 -1.410330 -0.028456 0.065796 0.000001 0.000000 0.000000 -61.974445 -11.039215 -27.708204 100.281227 1.349576 2.859622 -0.650101 8.716027 12.910687 -0.171077 -0.109432 0.261692 -0.000001 0.000003 -0.000001 
-0.946031 192.973007 -4.193531 -17.183533 -5.517426 0.796092 5.158681 0.907771 -0.303521 10.261022 2.501915 1.528594 10.261026 2.501914 1.528595 -1.141139 -4.434736 2.143335 -35.343968 -12.880856 -14.653669 -0.000001 0.000001 0.000000 -0.000001 0.000001 0.000000 -0.000001 0.000001 0.000000 0.431028 -0.661443 7.743648 -72.658070 -42.503827 -61.397534 7.611273 -65.161897 3.361086 15.695583 16.447060 -4.207325 -2.850798 -0.637268 -45.292405 -2.988976 -4.345698 -68.456718 -0.000004 0.000002 -0.000001 0.000003 -0.000000 0.000000 31.800179 -14.914925 -9.251316 -0.144068 22.172717 6.796553 -0.000002 -0.000011 0.000002 0.000002 -0.000002 -0.000000 -4.800253 5.434978 -35.616404 0.596682 0.869829 -63.565818 -0.000002 0.000001 0.000002 0.000001 0.000000 -0.000002 -2.645771 -0.564649 -48.432571 -3.536772 -4.693087 -74.343495 0.000006 -0.000003 0.000007 -0.000002 -0.000000 -0.000000 2.175282 8.395988 -34.094245 -2.131513 -5.042128 -48.376150 -0.000002 0.000001 -0.000003 0.000000 0.000000 0.000001 -0.167815 20.580084 13.400611 -40.479372 18.681430 51.341876 -76.761026 87.055303 73.518264 72.932801 -6.784207 31.177812 -1.475315 -2.447255 23.559810 -2.623448 3.394994 74.890852 -0.000005 -0.000003 0.000000 0.000001 0.000001 -0.000001 38.734860 13.891021 -15.373984 -3.951816 -8.268684 15.281980 0.000007 0.000004 -0.000007 -0.000002 -0.000000 0.000001 -7.141822 -2.311750 15.020289 1.329449 -1.994230 64.850399 0.000009 0.000016 -0.000001 0.000001 0.000001 0.000001 -0.017095 0.679911 20.483280 -4.001626 5.748544 68.011397 0.000002 0.000013 -0.000000 0.000001 0.000000 0.000003 -3.096538 7.805302 15.411719 -6.769708 9.466247 71.564830 0.000002 -0.000015 0.000010 0.000003 -0.000002 -0.000001 -34.859260 32.741605 6.944259 40.277386 0.095254 -1.400558 -3.983166 -10.607560 -0.283095 -1.211108 -0.028141 0.065353 0.000001 0.000000 0.000000 -73.587311 -9.632409 -31.711230 112.335028 -2.201467 2.742715 -3.016400 8.827751 11.231689 -0.808779 -0.108320 0.259954 0.000001 -0.000003 0.000000 
1.922017 196.466431 -5.405876 -17.718750 -6.956379 -0.029566 5.782785 0.912640 -0.071021 11.489381 2.869442 2.261429 11.489376 2.869440 2.261429 -1.719943 -5.266693 1.828918 -36.418254 -14.585454 -17.306347 -0.000001 0.000003 0.000001 -0.000001 0.000003 0.000001 -0.000001 0.000003 0.000001 0.556627 -1.201063 7.045336 -70.427167 -41.510919 -59.715183 7.193648 -69.346166 3.549685 16.849884 19.471022 -3.456881 -2.821557 -0.600960 -45.119837 -3.026702 -4.345342 -68.731408 -0.000004 0.000002 0.000000 -0.000000 0.000001 0.000002 30.489589 -13.027123 -9.632192 0.514609 22.750733 6.131630 -0.000002 -0.000011 0.000003 0.000003 -0.000001 0.000002 -4.641042 5.494672 -34.931975 0.601154 0.890027 -64.399559 -0.000001 0.000002 0.000002 -0.000001 -0.000001 -0.000002 -2.613509 -0.516109 -48.573351 -3.487013 -4.689370 -73.857294 0.000006 -0.000000 0.000009 -0.000000 0.000001 0.000001 2.017427 7.866844 -35.037590 -2.095142 -5.150907 -49.272107 -0.000002 0.000001 0.000002 0.000000 -0.000002 -0.000002 0.234638 22.232727 13.554332 -41.063702 17.746785 50.223607 -113.314027 86.417848 108.533400 75.027033 -4.279647 35.428478 -1.441455 -2.257715 25.232887 -2.553186 3.348717 73.964624 -0.000002 -0.000002 -0.000001 0.000002 0.000000 -0.000000 37.465152 13.885659 -13.699029 -3.884933 -8.106802 14.034076 0.000010 0.000002 -0.000007 0.000001 0.000001 -0.000001 -6.754580 -2.507959 16.934609 1.342130 -2.018244 64.783340 0.000007 0.000014 -0.000000 0.000002 0.000002 -0.000002 -0.284803 0.458992 22.524055 -3.942318 5.747714 67.576894 -0.000001 0.000015 0.000002 0.000001 0.000001 0.000001 -3.523697 6.925451 17.409237 -6.745937 9.594472 71.443840 0.000006 -0.000014 0.000010 0.000001 0.000001 0.000001 -30.135187 32.148669 4.384317 33.291831 0.779260 -1.088530 -0.188335 -10.006443 0.656583 -0.976174 -0.027772 0.064834 0.000001 0.000001 -0.000001 -83.575240 -8.611632 -34.553381 119.785494 -3.501613 2.925272 -4.816801 9.610255 9.865389 -1.468537 -0.107166 0.258174 -0.000001 0.000001 -0.000004 
3.862938 199.363968 -6.252960 -17.284603 -7.686330 -0.832016 6.185248 0.934457 0.374673 12.278890 3.179384 3.069254 12.278888 3.179381 3.069257 -2.898100 -5.815933 1.042671 -37.126385 -15.415834 -19.475916 -0.000000 0.000000 0.000001 -0.000000 0.000000 0.000001 -0.000000 0.000000 0.000001 0.670418 -1.748602 6.347706 -67.965601 -40.291061 -57.581725 6.013043 -74.327116 3.192086 17.788152 22.371212 -3.210290 -2.787077 -0.567983 -44.937164 -3.065440 -4.343684 -69.022121 -0.000002 0.000002 -0.000002 0.000002 0.000000 -0.000000 29.185600 -11.141736 -9.995575 1.215921 23.359505 5.416944 -0.000002 -0.000011 0.000005 -0.000002 -0.000002 -0.000000 -4.466914 5.534897 -34.211953 0.607038 0.911007 -65.281924 -0.000000 -0.000001 0.000005 -0.000001 0.000001 -0.000000 -2.578429 -0.448773 -48.723872 -3.435163 -4.686239 -73.342735 0.000005 -0.000001 0.000008 0.000001 0.000000 0.000002 1.834994 7.346781 -36.044746 -2.066780 -5.273159 -50.220363 -0.000004 0.000001 -0.000001 0.000000 0.000001 0.000001 0.248779 22.931320 14.297993 -41.534565 17.928109 49.482730 -138.507371 85.097457 132.429882 77.386569 -2.361160 39.431877 -1.420142 -2.017206 27.602024 -2.531145 3.312937 73.592331 0.000001 -0.000003 0.000000 0.000002 -0.000000 -0.000000 35.735700 14.303096 -11.410775 -3.564123 -7.932537 13.202567 0.000010 0.000004 -0.000007 0.000000 -0.000001 0.000001 -6.293668 -2.748960 19.571784 1.365454 -2.044793 65.318643 0.000008 0.000016 -0.000002 -0.000000 0.000001 -0.000002 -0.643735 0.276511 25.285709 -3.951468 5.780773 67.726783 0.000002 0.000016 -0.000003 0.000002 -0.000000 -0.000001 -4.134666 6.018604 20.122140 -6.812551 9.768133 71.932841 0.000002 -0.000014 0.000010 0.000001 -0.000001 -0.000000 -27.436008 32.083099 2.846813 27.426589 1.531739 -0.656702 4.253244 -10.866865 2.096489 -0.725748 -0.027368 0.064266 -0.000000 0.000001 0.000001 -91.300730 -8.040077 -35.849942 123.330718 -2.160293 3.150206 -6.939821 10.787145 10.026316 -2.126669 -0.105962 0.256414 -0.000002 0.000002 -0.000001 
